<svg width="1452" height="954" viewBox="0 0 1452 954" fill="none" xmlns="http://www.w3.org/2000/svg">
<path d="M1379.3 394.922C1381.05 394.922 1381.92 395.892 1381.92 397.832V428.682H1415.68L1433.72 427.809C1435.47 427.809 1436.34 428.779 1436.34 430.719C1436.54 432.271 1436.54 433.92 1436.34 435.666C1436.34 437.218 1436.15 438.77 1435.76 440.322C1435.18 442.068 1434.01 442.941 1432.27 442.941H1381.92V528.796C1381.92 538.497 1384.15 545.482 1388.61 549.75C1393.08 554.018 1400.35 556.152 1410.44 556.152C1413.55 556.152 1416.75 555.958 1420.05 555.57C1423.54 555.182 1427.22 554.503 1431.1 553.533C1432.85 553.145 1433.82 553.921 1434.01 555.861L1434.31 559.645C1434.5 561.197 1433.82 562.653 1432.27 564.011C1429.16 565.951 1425.48 567.697 1421.21 569.249C1416.94 570.607 1412.58 571.674 1408.11 572.45C1403.65 573.42 1399.38 573.905 1395.31 573.905C1381.92 573.905 1371.83 570.219 1365.04 562.847C1358.44 555.28 1355.15 544.123 1355.15 529.378V442.941H1336.81C1335.26 442.941 1334.58 441.971 1334.77 440.031L1335.94 433.92C1336.33 432.174 1337.49 431.204 1339.43 431.01L1355.73 428.682V400.742C1355.73 398.996 1356.7 397.832 1358.64 397.25C1360.58 396.862 1362.71 396.571 1365.04 396.377C1367.37 395.989 1369.79 395.698 1372.32 395.504C1374.84 395.116 1377.17 394.922 1379.3 394.922Z" fill="white"/>
<path d="M1253.87 426.353C1264.74 426.353 1274.63 428.972 1283.56 434.21C1292.67 439.254 1299.95 446.531 1305.38 456.038C1310.82 465.545 1313.53 476.895 1313.53 490.088V492.998C1313.53 494.162 1313.44 495.23 1313.24 496.2C1312.66 497.946 1311.49 498.819 1309.75 498.819H1210.51C1210.62 509.532 1212.75 519.233 1216.91 527.922C1221.18 536.847 1227 543.928 1234.37 549.167C1241.74 554.211 1250.09 556.734 1259.4 556.734C1274.53 556.734 1287.05 552.466 1296.94 543.929C1298.3 542.765 1299.47 542.959 1300.44 544.511L1303.05 548.294C1304.02 549.652 1303.93 551.205 1302.76 552.951C1296.75 559.548 1289.28 564.786 1280.35 568.666C1271.62 572.352 1262.21 574.196 1252.12 574.196C1239.51 574.196 1227.97 571.285 1217.49 565.465C1207.02 559.45 1198.67 550.913 1192.46 539.854C1186.45 528.601 1183.44 515.117 1183.44 499.401C1183.44 483.492 1186.64 470.201 1193.05 459.53C1199.45 448.665 1207.99 440.419 1218.66 434.792C1229.33 429.166 1241.07 426.353 1253.87 426.353ZM1250.96 442.359C1238.16 442.359 1228.16 447.21 1220.98 456.911C1215.73 464.06 1212.46 473.566 1211.15 485.432H1289.07C1288.93 477.369 1287.29 470.191 1284.14 463.896C1280.84 457.299 1276.28 452.06 1270.46 448.18C1264.83 444.299 1258.33 442.359 1250.96 442.359Z" fill="white"/>
<path d="M1101.2 553.242C1101.2 555.764 1101.49 557.414 1102.07 558.19C1102.85 558.966 1104.59 559.549 1107.31 559.937L1125.35 563.138C1127.1 563.332 1127.97 564.399 1127.97 566.339V569.249C1127.97 570.995 1127 571.868 1125.06 571.868H1056.96C1055.22 571.868 1054.34 570.898 1054.34 568.958V566.048C1054.34 564.108 1055.31 563.041 1057.25 562.847L1068.6 560.228C1071.32 559.645 1072.97 558.967 1073.55 558.19C1074.13 557.414 1074.42 555.667 1074.42 552.951V445.497L1054.63 442.069C1052.89 441.875 1052.01 440.808 1052.01 438.868V435.375C1052.01 433.823 1052.98 432.756 1054.92 432.174L1091.89 426.645C1094.6 426.257 1096.54 426.451 1097.71 427.227C1098.87 427.809 1099.45 429.361 1099.45 431.883V454.292L1101.2 455.058C1105.01 451.674 1104.13 452.44 1105 451.673C1110.8 446.564 1112 444.55 1117.21 440.905C1126.78 434.2 1133.26 432.427 1133.3 432.417C1133.3 432.417 1145.43 428.375 1149.47 428.375C1153.51 428.375 1157.78 428.123 1159.57 430.396C1161.36 432.669 1161.59 440.905 1161.59 440.905C1161.52 445.22 1159.57 450.605 1159.11 451.673C1158.65 452.74 1158.14 454.292 1156.2 454.292H1139.91C1137.58 454.292 1135.35 454.486 1133.21 454.874C1131.27 455.068 1129.14 455.65 1126.81 456.62C1121.18 458.948 1115.85 462.053 1110.8 465.934C1107.14 468.61 1103.94 471.543 1101.2 474.73V553.242Z" fill="white"/>
<path d="M971.562 426.353C979.904 426.353 988.344 427.226 996.881 428.972C1005.42 430.524 1012.98 432.658 1019.58 435.374C1021.13 436.15 1021.81 437.509 1021.62 439.449L1019 479.611C1018.8 481.357 1017.74 482.23 1015.8 482.23H1009.69C1007.75 482.23 1006.68 481.26 1006.48 479.32L999.777 446.818C997.881 446.35 995.945 445.931 993.971 445.561C987.762 444.396 981.262 443.814 974.472 443.814C959.726 443.814 948.57 448.374 941.003 457.493C933.63 466.418 929.943 479.806 929.943 497.655C929.943 509.296 931.981 519.579 936.056 528.504C940.324 537.235 946.242 544.122 953.809 549.167C961.375 554.211 970.009 556.734 979.71 556.734C986.501 556.734 993 555.667 999.209 553.533C1005.61 551.399 1011.53 548.197 1016.96 543.929C1018.32 542.571 1019.58 542.765 1020.75 544.511L1023.36 548.585C1024.33 549.749 1024.14 551.205 1022.78 552.951C1016.57 559.742 1008.81 564.98 999.5 568.666C990.381 572.352 980.389 574.196 969.523 574.196C956.136 574.196 944.301 571.091 934.019 564.883C923.93 558.674 916.071 550.041 910.444 538.981C904.818 527.922 902.005 515.117 902.005 500.565C902.005 485.82 904.915 472.917 910.735 461.858C916.556 450.799 924.706 442.165 935.183 435.956C945.66 429.554 957.786 426.353 971.562 426.353Z" fill="white"/>
<path d="M820.521 426.353C831.385 426.353 841.28 428.972 850.205 434.21C859.324 439.254 866.6 446.531 872.032 456.038C877.465 465.545 880.182 476.895 880.182 490.088V492.998C880.182 494.162 880.085 495.23 879.891 496.2C879.309 497.946 878.144 498.819 876.397 498.819H777.162C777.272 509.532 779.404 519.233 783.56 527.922C787.828 536.847 793.649 543.928 801.021 549.167C808.394 554.211 816.737 556.734 826.05 556.734C841.183 556.734 853.698 552.466 863.593 543.929C864.951 542.765 866.115 542.959 867.085 544.511L869.704 548.294C870.674 549.652 870.577 551.205 869.413 552.951C863.399 559.548 855.929 564.786 847.004 568.666C838.273 572.352 828.863 574.196 818.774 574.196C806.163 574.196 794.619 571.285 784.142 565.465C773.665 559.45 765.321 550.914 759.112 539.854C753.098 528.601 750.091 515.117 750.091 499.401C750.091 483.492 753.292 470.201 759.694 459.53C766.097 448.665 774.635 440.419 785.306 434.792C795.977 429.166 807.715 426.353 820.521 426.353ZM817.609 442.359C804.804 442.359 794.812 447.21 787.634 456.911C782.382 464.06 779.105 473.566 777.802 485.432H855.724C855.58 477.369 853.935 470.191 850.787 463.896C847.489 457.299 842.929 452.06 837.108 448.18C831.482 444.299 824.982 442.359 817.609 442.359Z" fill="white"/>
<path d="M656.543 353.595C665.468 353.595 673.714 354.371 681.28 355.923C688.847 357.475 695.541 359.415 701.361 361.743C707.376 363.877 712.033 366.109 715.331 368.438C716.689 369.602 717.368 371.057 717.368 372.803L718.532 413.256C718.532 415.002 717.562 415.972 715.622 416.166L708.929 416.457C707.183 416.651 706.019 415.778 705.437 413.838L698.742 393.466C696.996 387.839 694.183 383.473 690.303 380.369C686.422 377.265 681.669 375.034 676.042 373.676C670.415 372.318 664.013 371.639 656.834 371.639C641.118 371.639 629.089 374.743 620.746 380.951C612.403 387.16 608.232 395.988 608.232 407.436C608.232 414.032 609.784 419.756 612.889 424.606C616.187 429.263 621.62 433.531 629.187 437.411C636.947 441.291 647.521 445.366 660.908 449.635C677.788 454.873 691.175 460.403 701.07 466.224C710.965 471.85 718.047 478.253 722.315 485.432C726.584 492.61 728.719 501.341 728.719 511.624C728.719 524.623 725.517 535.78 719.114 545.093C712.712 554.406 703.496 561.584 691.467 566.629C679.632 571.673 665.371 574.195 648.686 574.195C638.402 574.195 628.895 573.419 620.164 571.867C611.433 570.315 603.769 568.569 597.173 566.629C590.77 564.495 585.725 562.555 582.039 560.809C580.487 560.033 579.711 558.674 579.711 556.733L578.547 513.952C578.547 512.206 579.517 511.333 581.457 511.333L586.695 511.042C588.441 511.042 589.606 511.915 590.188 513.661L596.009 530.541C597.755 535.392 600.277 539.466 603.575 542.765C606.874 546.063 610.754 548.682 615.217 550.622C619.679 552.562 624.53 554.017 629.769 554.987C635.201 555.763 640.827 556.151 646.647 556.151C663.721 556.151 676.916 552.854 686.229 546.257C695.541 539.66 700.197 530.444 700.197 518.608C700.197 511.43 698.645 505.513 695.541 500.856C692.631 496.006 687.392 491.543 679.825 487.469C672.258 483.394 661.588 479.125 647.812 474.663C630.739 468.842 617.156 463.119 607.067 457.492C597.173 451.672 589.994 445.172 585.531 437.993C581.263 430.815 579.129 422.375 579.129 412.674C579.129 400.451 582.234 389.973 588.442 381.242C594.845 372.318 603.867 365.527 615.508 360.87C627.149 356.02 640.827 353.595 656.543 353.595Z" fill="white"/>
<path d="M1452 344.904C1439.81 353.946 1425.17 366.756 1408.07 383.336C1407.29 384.457 1406.61 385.558 1406.02 386.639C1403.19 391.354 1401.78 396.541 1401.78 402.2C1401.78 408.331 1402.72 416.82 1404.61 427.666C1406.96 438.041 1408.14 448.651 1408.14 459.497C1408.14 475.531 1404.13 491.329 1396.12 506.891C1388.1 521.981 1377.25 535.892 1363.58 548.625C1360.51 551.374 1357.37 554.003 1354.17 556.516C1380.86 547.044 1407.34 527.91 1433.61 499.109L1439.97 492.036H1445.63L1440.68 497.694C1420.88 520.33 1400.13 537.543 1378.43 549.332C1367.35 555.491 1356.33 560.039 1345.37 562.98C1336.82 568.877 1327.8 573.996 1318.31 578.334C1301.8 585.408 1285.06 588.944 1268.08 588.944C1260.54 588.944 1256.77 586.587 1256.77 581.871C1256.77 576.684 1262.43 572.44 1273.74 569.139C1285.06 565.366 1298.74 563.479 1314.77 563.479C1318.1 563.479 1321.42 563.33 1324.73 563.035C1332.8 556.861 1340.32 549.702 1347.31 541.552C1358.63 528.348 1367.59 513.492 1374.19 496.987C1380.79 480.011 1384.09 462.798 1384.09 445.35C1384.09 434.975 1384.8 425.779 1386.21 417.763C1387.83 410.882 1390.67 403.827 1394.72 396.599C1373.85 418.053 1346.73 447.271 1313.36 484.255L1288.52 509.803H1282.86L1306.99 484.962C1340.47 448.179 1367.35 417.998 1387.63 394.419C1408.38 370.84 1422.06 354.336 1428.66 344.904H1452ZM1319.36 566.947C1318.07 566.993 1316.77 567.017 1315.48 567.017C1299.92 567.017 1286.95 568.431 1276.57 571.261C1265.73 574.09 1260.3 577.627 1260.3 581.871C1260.3 584.229 1262.43 585.408 1266.67 585.408C1281.29 585.408 1295.44 581.4 1309.11 573.383C1312.62 571.397 1316.03 569.251 1319.36 566.947Z" fill="white"/>
<path d="M1159.9 416.35C1164.15 416.35 1168.63 418.235 1173.34 422.008C1178.53 425.78 1181.12 432.147 1181.12 441.106C1181.12 451.481 1177.35 461.857 1169.81 472.231C1162.26 482.135 1152.83 491.802 1141.51 501.233C1130.66 510.665 1119.58 519.625 1108.26 528.113C1096.95 536.602 1087.51 544.854 1079.97 552.871C1072.42 560.888 1068.65 568.432 1068.65 575.506C1068.65 578.807 1069.83 581.401 1072.19 583.287C1074.55 584.702 1077.14 585.409 1079.97 585.409C1086.57 585.409 1095.53 582.344 1106.85 576.214C1118.64 569.612 1131.37 561.123 1145.05 550.748C1158.72 540.373 1171.46 529.291 1183.25 517.502L1242.66 456.669L1273.79 419.179H1313.4C1301.14 428.139 1287.94 438.513 1273.79 450.303C1259.64 462.092 1245.73 474.353 1232.05 487.086C1218.85 499.347 1206.82 511.607 1195.98 523.868C1163.91 571.969 1132.79 617.476 1102.61 660.39C1072.9 703.775 1043.42 743.388 1014.19 779.228C984.948 815.067 955.709 845.956 926.472 871.893C896.762 898.301 866.346 918.578 835.222 932.726C804.098 946.873 771.559 953.946 737.605 953.946C712.14 953.946 692.569 949.23 678.894 939.799C665.218 930.367 658.381 916.692 658.381 898.772C658.381 887.455 662.153 877.787 669.698 869.771C676.772 861.754 685.967 856.33 697.285 853.501V857.037C686.911 859.395 678.658 864.347 672.527 871.893C665.925 879.438 662.625 888.398 662.625 898.772C662.625 914.806 668.755 927.303 681.016 936.263C693.277 945.223 710.018 949.702 731.239 949.702C758.591 949.702 786.649 941.921 815.415 926.359C843.71 911.269 872.948 890.048 903.129 862.696C933.31 835.345 964.434 803.042 996.501 765.787C1028.1 729.004 1060.4 688.92 1093.41 645.535C1125.05 604.542 1157.31 561.864 1190.21 517.502H1188.2C1175.94 530.235 1162.73 542.025 1148.58 552.871C1134.44 563.717 1121.23 572.441 1108.97 579.043C1096.71 585.645 1086.81 588.946 1079.26 588.946C1067.47 588.946 1061.58 582.344 1061.58 569.14C1061.58 557.35 1065.12 546.268 1072.19 535.894C1079.26 525.519 1087.99 515.616 1098.36 506.185C1109.21 496.281 1119.82 486.85 1130.19 477.89C1141.04 468.93 1150 460.442 1157.07 452.425C1164.15 443.936 1167.68 435.684 1167.68 427.667C1167.68 422.48 1164.85 419.886 1159.2 419.886C1153.54 419.886 1145.52 422.952 1135.14 429.082C1125.24 434.741 1114.16 442.522 1101.9 452.425C1090.11 462.328 1078.79 473.174 1067.95 484.964L1061.58 492.037H1055.92L1062.29 484.964C1081.15 464.215 1099.3 447.709 1116.75 435.448C1134.67 422.716 1149.06 416.35 1159.9 416.35Z" fill="white"/>
<path d="M996.441 411.396C1008.7 411.397 1014.83 416.112 1014.83 425.543C1014.83 433.559 1010.3 443.462 1001.24 455.253H1001.39L1033.93 419.177H1075.67C1069.54 422.949 1062.93 427.665 1055.86 433.324C1048.79 438.512 1042.18 444.17 1036.05 450.301C1009.17 477.181 987.953 498.637 972.391 514.671C956.829 530.705 945.747 543.202 939.145 552.162C933.014 561.122 929.949 568.667 929.949 574.797C929.949 581.871 932.779 585.408 938.438 585.408C945.04 585.408 954 581.87 965.317 574.797C977.107 567.252 990.311 556.877 1004.93 543.673C1019.55 530.469 1034.4 515.614 1049.49 499.109L1055.86 492.035H1061.52L1056.57 497.694C1041.48 514.671 1026.15 530.234 1010.59 544.381C995.498 558.057 981.351 568.902 968.146 576.919C955.414 584.936 945.276 588.944 937.73 588.944C933.486 588.944 929.713 587.294 926.412 583.993C923.583 581.164 922.168 577.391 922.168 572.675C922.168 560.414 928.771 543.908 941.975 523.159C944.381 519.508 946.949 515.799 949.677 512.031C938.133 523.631 925.9 534.887 912.973 545.795C898.354 558.056 884.441 568.195 871.237 576.212C858.505 583.757 847.895 587.53 839.406 587.53C827.617 587.53 821.723 578.334 821.723 559.942C821.723 547.681 825.495 534.713 833.04 521.037C840.114 507.362 849.781 494.157 862.042 481.425C874.303 468.221 887.979 456.431 903.069 446.057C918.16 435.211 933.721 426.722 949.755 420.592C966.26 414.461 981.823 411.396 996.441 411.396ZM997.856 417.055C990.783 417.055 981.586 419.884 970.269 425.543C959.422 431.202 947.633 438.984 934.9 448.887C922.168 458.318 909.671 468.928 897.41 480.718C885.149 492.507 873.832 504.297 863.457 516.086C853.554 527.875 845.537 538.957 839.406 549.332C833.276 559.707 830.211 568.431 830.211 575.505C830.211 581.164 833.512 583.993 840.113 583.993C847.187 583.993 856.619 580.692 868.408 574.09C880.198 567.016 893.402 557.349 908.021 545.088C922.639 532.827 937.495 518.916 952.585 503.354C969.562 485.434 983.238 470.108 993.612 457.375C1004.46 444.643 1009.88 434.268 1009.88 426.251C1009.88 420.121 1005.87 417.055 997.856 417.055Z" fill="white"/>
<path d="M960.602 111.474C980.408 77.5203 999.743 50.6404 1018.61 30.8342C1037.94 10.5564 1053.5 0.41748 1065.29 0.41748C1075.67 0.41748 1080.85 5.84062 1080.85 16.6869C1080.85 36.4931 1072.84 58.1856 1056.8 81.7645C1040.77 104.872 1018.84 128.215 991.019 151.794C963.196 174.901 931.6 197.301 896.232 218.993C861.335 240.214 824.552 259.313 785.883 276.29C747.213 293.267 708.78 306.707 670.582 316.61C632.384 326.041 596.78 330.757 563.77 330.757C512.84 330.757 468.747 324.627 431.493 312.366C394.71 300.105 366.179 282.656 345.902 260.02C326.095 236.913 316.192 209.562 316.192 177.966C316.192 154.387 322.794 132.223 335.998 111.474C349.203 90.7244 367.358 72.5687 390.466 57.0067C414.044 40.9731 441.16 28.4763 471.813 19.5163C502.465 10.5564 535.24 6.07641 570.136 6.07641C611.164 6.07641 652.426 11.028 693.925 20.9311C735.896 30.3626 775.98 43.8026 814.177 61.2509C852.847 78.6992 887.979 98.977 919.575 122.084C951.642 144.72 978.286 169.242 999.507 195.65C1020.73 222.059 1034.88 249.174 1041.95 276.997L1039.12 277.705C1031.57 250.353 1017.19 223.709 995.97 197.772C974.749 171.364 948.341 146.842 916.745 124.206C885.621 101.571 850.96 81.7645 812.763 64.7877C774.565 47.8109 734.717 34.6068 693.218 25.1753C652.191 15.2721 611.164 10.3206 570.136 10.3206C535.24 10.3206 502.465 14.5648 471.813 23.0532C441.632 31.5415 415.223 43.331 392.588 58.4214C369.952 73.5119 352.268 91.196 339.535 111.474C326.803 131.752 320.436 153.68 320.436 177.259C320.436 224.416 341.657 261.199 384.099 287.608C427.013 313.544 486.903 326.513 563.77 326.513C595.837 326.513 630.734 321.797 668.46 312.366C706.186 302.462 744.148 289.258 782.346 272.753C820.544 255.776 857.091 236.913 891.987 216.164C927.356 194.943 958.951 172.779 986.774 149.672C1014.6 126.564 1036.53 103.693 1052.56 81.0571C1068.59 58.4214 1076.61 37.4362 1076.61 18.1016C1076.61 9.61324 1073.31 5.36906 1066.71 5.36906C1055.86 5.36906 1041.95 14.5648 1024.97 32.9563C1008 51.3478 989.132 77.5203 968.383 111.474C951.878 138.354 936.316 168.77 921.697 202.724C907.55 236.206 892.931 271.103 877.84 307.414C862.75 343.725 846.245 379.801 828.325 415.641C810.876 451.481 790.834 485.434 768.199 517.501C745.563 549.097 719.155 577.156 688.974 601.678C659.264 626.671 624.603 646.242 584.991 660.389C545.85 674.536 500.579 681.61 449.177 681.61C402.962 681.61 359.813 674.772 319.729 661.097C279.645 647.421 244.513 628.322 214.332 603.8C184.151 579.278 160.572 550.748 143.595 518.209C126.618 485.67 118.13 450.773 118.13 413.519C118.13 377.207 126.383 343.254 142.888 311.658C159.865 279.591 183.208 251.532 212.917 227.482C243.098 202.96 277.759 183.861 316.9 170.185C356.512 156.509 398.718 149.672 443.518 149.672C492.562 149.672 536.183 157.924 574.381 174.429C612.578 190.463 642.523 212.863 664.216 241.629C686.38 269.924 697.462 302.462 697.462 339.245C697.462 367.068 690.624 393.241 676.948 417.763C663.744 441.813 645.117 463.034 621.067 481.426C597.016 499.817 568.957 514.2 536.89 524.575C505.295 534.95 471.105 540.137 434.322 540.137C397.539 540.137 365.472 534.714 338.121 523.868C310.769 512.55 289.548 496.752 274.458 476.474C259.367 456.196 251.822 432.618 251.822 405.738C251.822 378.386 260.075 353.864 276.58 332.172C293.085 310.008 315.249 292.559 343.072 279.827C371.367 266.623 402.962 260.02 437.859 260.02C475.585 260.02 506.238 267.801 529.817 283.364C553.395 298.454 565.185 318.496 565.185 343.49C565.185 360.938 559.526 376.736 548.208 390.883C537.362 404.559 522.271 415.405 502.937 423.422C484.074 431.439 462.381 435.447 437.859 435.447C424.655 435.447 414.044 432.853 406.028 427.666C398.011 422.479 394.002 415.877 394.002 407.86C394.002 396.542 403.198 387.582 421.59 380.98C440.453 373.906 465.21 370.369 495.863 370.369C545.379 370.369 588.999 378.622 626.726 395.127C664.923 411.632 694.633 434.504 715.854 463.742C737.075 492.979 747.685 526.697 747.685 564.895C747.685 594.133 739.197 621.248 722.22 646.242C705.715 671.707 682.607 693.871 652.898 712.734C623.66 732.069 589.471 747.159 550.33 758.006C511.189 768.852 468.983 774.275 423.712 774.275C361.935 774.275 305.11 765.787 253.237 748.81C201.835 732.305 157.035 708.726 118.837 678.073C81.1112 647.421 51.8734 611.109 31.1241 569.139C10.3747 527.169 0 481.19 0 431.203C0 384.045 9.90311 339.01 29.7093 296.096C49.5156 253.183 77.3386 214.513 113.178 180.088C149.49 145.663 192.403 117.604 241.919 95.9118L244.041 99.4486C195.469 120.67 153.262 148.493 117.423 182.918C81.5828 217.343 53.9955 256.012 34.6609 298.926C14.8547 341.367 4.95155 385.931 4.95155 432.618C4.95155 482.133 15.3262 527.404 36.0756 568.432C56.3534 609.459 85.1196 645.063 122.374 675.244C159.629 705.425 203.721 728.768 254.651 745.273C306.053 761.778 362.407 770.031 423.712 770.031C468.512 770.031 510.246 764.608 548.915 753.761C587.585 743.387 621.302 728.768 650.069 709.905C679.306 691.513 702.178 669.821 718.683 644.827C735.188 620.305 743.441 593.661 743.441 564.895C743.441 527.64 732.83 494.866 711.609 466.571C690.86 437.805 661.858 415.405 624.603 399.371C587.349 382.866 544.671 374.614 496.57 374.614C466.389 374.614 442.339 377.679 424.419 383.809C406.971 389.468 398.247 397.485 398.247 407.86C398.247 414.462 401.783 420.121 408.857 424.837C416.402 429.081 426.07 431.203 437.859 431.203C461.438 431.203 482.423 427.43 500.815 419.885C519.206 411.868 533.825 401.258 544.671 388.054C555.517 374.378 560.941 359.287 560.941 342.782C560.941 319.675 549.387 300.812 526.28 286.193C503.644 271.574 474.17 264.265 437.859 264.265C403.906 264.265 373.017 270.631 345.194 283.364C317.843 295.625 296.15 312.366 280.117 333.586C264.083 354.807 256.066 378.858 256.066 405.738C256.066 431.674 263.376 454.546 277.995 474.352C293.085 493.687 313.834 508.777 340.243 519.623C367.123 530.47 398.482 535.893 434.322 535.893C470.162 535.893 503.644 530.941 534.768 521.038C566.364 510.664 593.951 496.516 617.53 478.596C641.109 460.676 659.5 439.927 672.704 416.348C686.38 392.298 693.218 366.597 693.218 339.245C693.218 303.406 682.372 271.574 660.679 243.751C638.987 215.928 609.277 194 571.551 177.966C534.297 161.933 491.619 153.916 443.518 153.916C399.19 153.916 357.691 160.754 319.022 174.429C280.352 187.633 246.163 206.261 216.454 230.311C187.216 253.89 164.109 281.477 147.132 313.073C130.627 344.197 122.374 377.679 122.374 413.519C122.374 444.643 129.919 473.645 145.01 500.525C160.572 527.405 181.793 551.219 208.673 571.968C236.024 592.246 267.384 608.044 302.752 619.362C338.592 631.151 377.026 637.046 418.053 637.046C465.211 637.046 508.124 630.208 546.793 616.533C585.463 602.857 620.595 584.465 652.191 561.358C684.258 537.779 713.26 510.899 739.197 480.718C765.133 450.537 788.712 418.706 809.933 385.224C831.154 351.742 850.489 318.496 867.937 285.486C885.857 252.004 902.362 220.408 917.453 190.699C932.543 160.518 946.926 134.109 960.602 111.474Z" fill="white"/>
</svg>
