# Blender v2.93.4 OBJ File: 'juice.blend'
# www.blender.org
mtllib juice.mtl
o glass-group_glass
v 0.000000 0.008270 -0.648267
v -0.000000 2.759277 -0.666073
v 0.126471 0.008270 -0.635811
v 0.129944 2.759277 -0.653274
v 0.248081 0.008270 -0.598920
v 0.254895 2.759277 -0.615371
v 0.360158 0.008270 -0.539014
v 0.370050 2.759277 -0.553819
v 0.458394 0.008270 -0.458394
v 0.470985 2.759277 -0.470985
v 0.539014 0.008270 -0.360158
v 0.553819 2.759277 -0.370050
v 0.598921 0.008270 -0.248081
v 0.615371 2.759277 -0.254895
v 0.635811 0.008270 -0.126471
v 0.653274 2.759277 -0.129944
v 0.648267 0.008270 0.000000
v 0.666073 2.759277 0.000000
v 0.635811 0.008270 0.126471
v 0.653274 2.759277 0.129944
v 0.598921 0.008270 0.248081
v 0.615371 2.759277 0.254895
v 0.539014 0.008270 0.360158
v 0.553819 2.759277 0.370050
v 0.458394 0.008270 0.458394
v 0.470985 2.759277 0.470985
v 0.360158 0.008270 0.539014
v 0.370050 2.759277 0.553819
v 0.248081 0.008270 0.598920
v 0.254895 2.759277 0.615371
v 0.126471 0.008270 0.635811
v 0.129944 2.759277 0.653275
v -0.000000 0.008270 0.648267
v -0.000000 2.759277 0.666073
v -0.126471 0.008270 0.635811
v -0.129944 2.759277 0.653275
v -0.248081 0.008270 0.598920
v -0.254895 2.759277 0.615371
v -0.360158 0.008270 0.539014
v -0.370050 2.759277 0.553819
v -0.458394 0.008270 0.458394
v -0.470985 2.759277 0.470985
v -0.539014 0.008270 0.360158
v -0.553819 2.759277 0.370050
v -0.598920 0.008270 0.248081
v -0.615371 2.759277 0.254895
v -0.635811 0.008270 0.126471
v -0.653274 2.759277 0.129944
v -0.648267 0.008270 -0.000000
v -0.666073 2.759277 -0.000000
v -0.635811 0.008270 -0.126471
v -0.653274 2.759277 -0.129944
v -0.598920 0.008270 -0.248081
v -0.615371 2.759277 -0.254895
v -0.539014 0.008270 -0.360158
v -0.553819 2.759277 -0.370050
v -0.458394 0.008270 -0.458394
v -0.470985 2.759277 -0.470985
v -0.360158 0.008270 -0.539014
v -0.370050 2.759277 -0.553819
v -0.248081 0.008270 -0.598921
v -0.254895 2.759277 -0.615371
v -0.126471 0.008270 -0.635811
v -0.129944 2.759277 -0.653275
v 0.152024 2.759277 -0.764276
v 0.000000 2.759277 -0.779249
v 0.298206 2.759277 -0.719932
v 0.432927 2.759277 -0.647922
v 0.551012 2.759277 -0.551012
v 0.647922 2.759277 -0.432927
v 0.719932 2.759277 -0.298206
v 0.764276 2.759277 -0.152024
v 0.779249 2.759277 0.000000
v 0.764276 2.759277 0.152024
v 0.719932 2.759277 0.298205
v 0.647922 2.759277 0.432927
v 0.551012 2.759277 0.551012
v 0.432927 2.759277 0.647922
v 0.298206 2.759277 0.719932
v 0.152024 2.759277 0.764276
v -0.000000 2.759277 0.779249
v -0.152024 2.759277 0.764276
v -0.298206 2.759277 0.719932
v -0.432927 2.759277 0.647921
v -0.551012 2.759277 0.551012
v -0.647921 2.759277 0.432927
v -0.719932 2.759277 0.298206
v -0.764276 2.759277 0.152024
v -0.779249 2.759277 -0.000000
v -0.764276 2.759277 -0.152024
v -0.719932 2.759277 -0.298206
v -0.647922 2.759277 -0.432927
v -0.551012 2.759277 -0.551012
v -0.432927 2.759277 -0.647922
v -0.298206 2.759277 -0.719932
v -0.152024 2.759277 -0.764276
v 0.108102 0.144235 -0.543467
v 0.000000 0.144235 -0.554115
v 0.212051 0.144235 -0.511935
v 0.307850 0.144235 -0.460729
v 0.391818 0.144235 -0.391818
v 0.460729 0.144235 -0.307850
v 0.511935 0.144235 -0.212050
v 0.543468 0.144235 -0.108102
v 0.554115 0.144235 0.000000
v 0.543468 0.144235 0.108102
v 0.511935 0.144235 0.212050
v 0.460730 0.144235 0.307850
v 0.391818 0.144235 0.391818
v 0.307850 0.144235 0.460729
v 0.212051 0.144235 0.511935
v 0.108102 0.144235 0.543467
v 0.000000 0.144235 0.554115
v -0.108102 0.144235 0.543467
v -0.212050 0.144235 0.511935
v -0.307849 0.144235 0.460729
v -0.391818 0.144235 0.391818
v -0.460729 0.144235 0.307850
v -0.511935 0.144235 0.212051
v -0.543467 0.144235 0.108102
v -0.554115 0.144235 -0.000000
v -0.543467 0.144235 -0.108102
v -0.511935 0.144235 -0.212051
v -0.460729 0.144235 -0.307849
v -0.391818 0.144235 -0.391818
v -0.307849 0.144235 -0.460729
v -0.212050 0.144235 -0.511935
v -0.108102 0.144235 -0.543467
vt 1.000000 0.500000
vt 1.000000 1.000000
vt 0.968750 1.000000
vt 0.968750 0.500000
vt 0.937500 1.000000
vt 0.937500 0.500000
vt 0.906250 1.000000
vt 0.906250 0.500000
vt 0.875000 1.000000
vt 0.875000 0.500000
vt 0.843750 1.000000
vt 0.843750 0.500000
vt 0.812500 1.000000
vt 0.812500 0.500000
vt 0.781250 1.000000
vt 0.781250 0.500000
vt 0.750000 1.000000
vt 0.750000 0.500000
vt 0.718750 1.000000
vt 0.718750 0.500000
vt 0.687500 1.000000
vt 0.687500 0.500000
vt 0.656250 1.000000
vt 0.656250 0.500000
vt 0.625000 1.000000
vt 0.625000 0.500000
vt 0.593750 1.000000
vt 0.593750 0.500000
vt 0.562500 1.000000
vt 0.562500 0.500000
vt 0.531250 1.000000
vt 0.531250 0.500000
vt 0.500000 1.000000
vt 0.500000 0.500000
vt 0.468750 1.000000
vt 0.468750 0.500000
vt 0.437500 1.000000
vt 0.437500 0.500000
vt 0.406250 1.000000
vt 0.406250 0.500000
vt 0.375000 1.000000
vt 0.375000 0.500000
vt 0.343750 1.000000
vt 0.343750 0.500000
vt 0.312500 1.000000
vt 0.312500 0.500000
vt 0.281250 1.000000
vt 0.281250 0.500000
vt 0.250000 1.000000
vt 0.250000 0.500000
vt 0.218750 1.000000
vt 0.218750 0.500000
vt 0.187500 1.000000
vt 0.187500 0.500000
vt 0.156250 1.000000
vt 0.156250 0.500000
vt 0.125000 1.000000
vt 0.125000 0.500000
vt 0.093750 1.000000
vt 0.093750 0.500000
vt 0.062500 1.000000
vt 0.062500 0.500000
vt 0.290021 0.048799
vt 0.328505 0.060472
vt 0.328505 0.060472
vt 0.290021 0.048799
vt 0.031250 1.000000
vt 0.031250 0.500000
vt 0.000000 1.000000
vt 0.000000 0.500000
vt 0.750000 0.490000
vt 0.796822 0.485388
vt 0.841844 0.471731
vt 0.883337 0.449553
vt 0.919706 0.419706
vt 0.949553 0.383337
vt 0.971731 0.341844
vt 0.985388 0.296822
vt 0.990000 0.250000
vt 0.985388 0.203178
vt 0.971731 0.158156
vt 0.949553 0.116663
vt 0.919706 0.080294
vt 0.883337 0.050447
vt 0.841844 0.028269
vt 0.796822 0.014612
vt 0.750000 0.010000
vt 0.703178 0.014612
vt 0.658156 0.028269
vt 0.616663 0.050447
vt 0.580294 0.080294
vt 0.550447 0.116663
vt 0.528269 0.158156
vt 0.514612 0.203178
vt 0.510000 0.250000
vt 0.514612 0.296822
vt 0.528269 0.341844
vt 0.550447 0.383337
vt 0.580294 0.419706
vt 0.616663 0.449553
vt 0.658156 0.471731
vt 0.703178 0.485388
vt 0.250000 0.455143
vt 0.290021 0.451201
vt 0.296822 0.485388
vt 0.250000 0.490000
vt 0.328505 0.439528
vt 0.341844 0.471731
vt 0.363971 0.420570
vt 0.383337 0.449553
vt 0.395058 0.395058
vt 0.419706 0.419706
vt 0.420570 0.363971
vt 0.449553 0.383337
vt 0.439528 0.328505
vt 0.471731 0.341844
vt 0.451201 0.290021
vt 0.485388 0.296822
vt 0.455143 0.250000
vt 0.490000 0.250000
vt 0.451201 0.209979
vt 0.485388 0.203178
vt 0.439528 0.171495
vt 0.471731 0.158156
vt 0.420570 0.136029
vt 0.449553 0.116663
vt 0.395058 0.104942
vt 0.419706 0.080294
vt 0.363971 0.079430
vt 0.383337 0.050447
vt 0.341844 0.028269
vt 0.296822 0.014612
vt 0.250000 0.044857
vt 0.250000 0.010000
vt 0.209979 0.048799
vt 0.203178 0.014612
vt 0.171495 0.060472
vt 0.158156 0.028269
vt 0.136029 0.079430
vt 0.116663 0.050447
vt 0.104942 0.104942
vt 0.080294 0.080294
vt 0.079430 0.136029
vt 0.050447 0.116663
vt 0.060472 0.171495
vt 0.028269 0.158156
vt 0.048799 0.209979
vt 0.014612 0.203178
vt 0.044857 0.250000
vt 0.010000 0.250000
vt 0.048799 0.290021
vt 0.014612 0.296822
vt 0.060472 0.328505
vt 0.028269 0.341844
vt 0.079430 0.363971
vt 0.050447 0.383337
vt 0.104942 0.395058
vt 0.080294 0.419706
vt 0.136029 0.420570
vt 0.116663 0.449553
vt 0.171495 0.439528
vt 0.158156 0.471731
vt 0.209979 0.451201
vt 0.203178 0.485388
vt 0.290021 0.451201
vt 0.250000 0.455143
vt 0.209979 0.451201
vt 0.171495 0.439528
vt 0.136029 0.420570
vt 0.104942 0.395058
vt 0.079430 0.363971
vt 0.060472 0.328505
vt 0.048799 0.290021
vt 0.044857 0.250000
vt 0.048799 0.209979
vt 0.060472 0.171495
vt 0.079430 0.136029
vt 0.104942 0.104942
vt 0.136029 0.079430
vt 0.171495 0.060472
vt 0.209979 0.048799
vt 0.250000 0.044857
vt 0.363971 0.079430
vt 0.395058 0.104942
vt 0.420570 0.136029
vt 0.439528 0.171495
vt 0.451201 0.209979
vt 0.455143 0.250000
vt 0.451201 0.290021
vt 0.439528 0.328505
vt 0.420570 0.363971
vt 0.395058 0.395058
vt 0.363971 0.420570
vt 0.328505 0.439528
vn 0.0979 -0.0473 -0.9941
vn 0.2900 -0.0473 -0.9559
vn 0.4709 -0.0473 -0.8809
vn 0.6337 -0.0473 -0.7721
vn 0.7721 -0.0473 -0.6337
vn 0.8809 -0.0473 -0.4709
vn 0.9559 -0.0473 -0.2900
vn 0.9941 -0.0473 -0.0979
vn 0.9941 -0.0473 0.0979
vn 0.9559 -0.0473 0.2900
vn 0.8809 -0.0473 0.4709
vn 0.7721 -0.0473 0.6337
vn 0.6337 -0.0473 0.7721
vn 0.4709 -0.0473 0.8809
vn 0.2900 -0.0473 0.9559
vn 0.0979 -0.0473 0.9941
vn -0.0979 -0.0473 0.9941
vn -0.2900 -0.0473 0.9559
vn -0.4709 -0.0473 0.8809
vn -0.6337 -0.0473 0.7721
vn -0.7721 -0.0473 0.6337
vn -0.8809 -0.0473 0.4709
vn -0.9559 -0.0473 0.2900
vn -0.9941 -0.0473 0.0979
vn -0.9941 -0.0473 -0.0979
vn -0.9559 -0.0473 -0.2900
vn -0.8809 -0.0473 -0.4709
vn -0.7721 -0.0473 -0.6337
vn -0.6337 -0.0473 -0.7721
vn -0.4709 -0.0473 -0.8809
vn -0.2900 0.0426 -0.9561
vn -0.2900 -0.0473 -0.9559
vn -0.0979 -0.0473 -0.9941
vn 0.0000 -1.0000 -0.0000
vn 0.0000 1.0000 -0.0000
vn -0.2900 0.0426 0.9561
vn 0.6338 0.0426 0.7723
vn -0.0979 0.0426 -0.9943
vn -0.4710 0.0426 0.8811
vn 0.4710 0.0426 0.8811
vn 0.0979 0.0426 -0.9943
vn -0.6338 0.0426 0.7723
vn 0.2900 0.0426 0.9561
vn 0.2900 0.0426 -0.9561
vn -0.7723 0.0426 0.6338
vn 0.0979 0.0426 0.9943
vn 0.4710 0.0426 -0.8811
vn -0.8811 0.0426 0.4710
vn 0.6338 0.0426 -0.7723
vn -0.9561 0.0426 0.2900
vn 0.7723 0.0426 -0.6338
vn -0.9943 0.0426 0.0979
vn 0.8811 0.0426 -0.4710
vn -0.9943 0.0426 -0.0979
vn 0.9561 0.0426 -0.2900
vn -0.9561 0.0426 -0.2900
vn 0.9943 0.0426 -0.0979
vn -0.8811 0.0426 -0.4710
vn 0.9943 0.0426 0.0979
vn -0.7723 0.0426 -0.6338
vn 0.9561 0.0426 0.2900
vn -0.6338 0.0426 -0.7723
vn 0.8811 0.0426 0.4710
vn -0.4710 0.0426 -0.8811
vn -0.0979 0.0426 0.9943
vn 0.7723 0.0426 0.6338
usemtl glass_
s off
f 1/1/1 66/2/1 65/3/1 3/4/1
f 3/4/2 65/3/2 67/5/2 5/6/2
f 5/6/3 67/5/3 68/7/3 7/8/3
f 7/8/4 68/7/4 69/9/4 9/10/4
f 9/10/5 69/9/5 70/11/5 11/12/5
f 11/12/6 70/11/6 71/13/6 13/14/6
f 13/14/7 71/13/7 72/15/7 15/16/7
f 15/16/8 72/15/8 73/17/8 17/18/8
f 17/18/9 73/17/9 74/19/9 19/20/9
f 19/20/10 74/19/10 75/21/10 21/22/10
f 21/22/11 75/21/11 76/23/11 23/24/11
f 23/24/12 76/23/12 77/25/12 25/26/12
f 25/26/13 77/25/13 78/27/13 27/28/13
f 27/28/14 78/27/14 79/29/14 29/30/14
f 29/30/15 79/29/15 80/31/15 31/32/15
f 31/32/16 80/31/16 81/33/16 33/34/16
f 33/34/17 81/33/17 82/35/17 35/36/17
f 35/36/18 82/35/18 83/37/18 37/38/18
f 37/38/19 83/37/19 84/39/19 39/40/19
f 39/40/20 84/39/20 85/41/20 41/42/20
f 41/42/21 85/41/21 86/43/21 43/44/21
f 43/44/22 86/43/22 87/45/22 45/46/22
f 45/46/23 87/45/23 88/47/23 47/48/23
f 47/48/24 88/47/24 89/49/24 49/50/24
f 49/50/25 89/49/25 90/51/25 51/52/25
f 51/52/26 90/51/26 91/53/26 53/54/26
f 53/54/27 91/53/27 92/55/27 55/56/27
f 55/56/28 92/55/28 93/57/28 57/58/28
f 57/58/29 93/57/29 94/59/29 59/60/29
f 59/60/30 94/59/30 95/61/30 61/62/30
f 32/63/31 30/64/31 111/65/31 112/66/31
f 61/62/32 95/61/32 96/67/32 63/68/32
f 63/68/33 96/67/33 66/69/33 1/70/33
f 1/71/34 3/72/34 5/73/34 7/74/34 9/75/34 11/76/34 13/77/34 15/78/34 17/79/34 19/80/34 21/81/34 23/82/34 25/83/34 27/84/34 29/85/34 31/86/34 33/87/34 35/88/34 37/89/34 39/90/34 41/91/34 43/92/34 45/93/34 47/94/34 49/95/34 51/96/34 53/97/34 55/98/34 57/99/34 59/100/34 61/101/34 63/102/34
f 2/103/35 4/104/35 65/105/35 66/106/35
f 4/104/35 6/107/35 67/108/35 65/105/35
f 6/107/35 8/109/35 68/110/35 67/108/35
f 8/109/35 10/111/35 69/112/35 68/110/35
f 10/111/35 12/113/35 70/114/35 69/112/35
f 12/113/35 14/115/35 71/116/35 70/114/35
f 14/115/35 16/117/35 72/118/35 71/116/35
f 16/117/35 18/119/35 73/120/35 72/118/35
f 18/119/35 20/121/35 74/122/35 73/120/35
f 20/121/35 22/123/35 75/124/35 74/122/35
f 22/123/35 24/125/35 76/126/35 75/124/35
f 24/125/35 26/127/35 77/128/35 76/126/35
f 26/127/35 28/129/35 78/130/35 77/128/35
f 28/129/35 30/64/35 79/131/35 78/130/35
f 30/64/35 32/63/35 80/132/35 79/131/35
f 32/63/35 34/133/35 81/134/35 80/132/35
f 34/133/35 36/135/35 82/136/35 81/134/35
f 36/135/35 38/137/35 83/138/35 82/136/35
f 38/137/35 40/139/35 84/140/35 83/138/35
f 40/139/35 42/141/35 85/142/35 84/140/35
f 42/141/35 44/143/35 86/144/35 85/142/35
f 44/143/35 46/145/35 87/146/35 86/144/35
f 46/145/35 48/147/35 88/148/35 87/146/35
f 48/147/35 50/149/35 89/150/35 88/148/35
f 50/149/35 52/151/35 90/152/35 89/150/35
f 52/151/35 54/153/35 91/154/35 90/152/35
f 54/153/35 56/155/35 92/156/35 91/154/35
f 56/155/35 58/157/35 93/158/35 92/156/35
f 58/157/35 60/159/35 94/160/35 93/158/35
f 60/159/35 62/161/35 95/162/35 94/160/35
f 62/161/35 64/163/35 96/164/35 95/162/35
f 64/163/35 2/103/35 66/106/35 96/164/35
f 97/165/35 98/166/35 128/167/35 127/168/35 126/169/35 125/170/35 124/171/35 123/172/35 122/173/35 121/174/35 120/175/35 119/176/35 118/177/35 117/178/35 116/179/35 115/180/35 114/181/35 113/182/35 112/66/35 111/65/35 110/183/35 109/184/35 108/185/35 107/186/35 106/187/35 105/188/35 104/189/35 103/190/35 102/191/35 101/192/35 100/193/35 99/194/35
f 6/107/36 4/104/36 97/165/36 99/194/36
f 60/159/37 58/157/37 125/170/37 126/169/37
f 34/133/38 32/63/38 112/66/38 113/182/38
f 8/109/39 6/107/39 99/194/39 100/193/39
f 62/161/40 60/159/40 126/169/40 127/168/40
f 36/135/41 34/133/41 113/182/41 114/181/41
f 10/111/42 8/109/42 100/193/42 101/192/42
f 64/163/43 62/161/43 127/168/43 128/167/43
f 38/137/44 36/135/44 114/181/44 115/180/44
f 12/113/45 10/111/45 101/192/45 102/191/45
f 2/103/46 64/163/46 128/167/46 98/166/46
f 40/139/47 38/137/47 115/180/47 116/179/47
f 14/115/48 12/113/48 102/191/48 103/190/48
f 42/141/49 40/139/49 116/179/49 117/178/49
f 16/117/50 14/115/50 103/190/50 104/189/50
f 44/143/51 42/141/51 117/178/51 118/177/51
f 18/119/52 16/117/52 104/189/52 105/188/52
f 46/145/53 44/143/53 118/177/53 119/176/53
f 20/121/54 18/119/54 105/188/54 106/187/54
f 48/147/55 46/145/55 119/176/55 120/175/55
f 22/123/56 20/121/56 106/187/56 107/186/56
f 50/149/57 48/147/57 120/175/57 121/174/57
f 24/125/58 22/123/58 107/186/58 108/185/58
f 52/151/59 50/149/59 121/174/59 122/173/59
f 26/127/60 24/125/60 108/185/60 109/184/60
f 54/153/61 52/151/61 122/173/61 123/172/61
f 28/129/62 26/127/62 109/184/62 110/183/62
f 56/155/63 54/153/63 123/172/63 124/171/63
f 30/64/64 28/129/64 110/183/64 111/65/64
f 4/104/65 2/103/65 98/166/65 97/165/65
f 58/157/66 56/155/66 124/171/66 125/170/66
o juice-group_juice
v -0.000000 0.160563 -0.532785
v 0.000000 2.011927 -0.614395
v 0.103941 0.160563 -0.522548
v 0.119863 2.011927 -0.602590
v 0.203888 0.160563 -0.492229
v 0.235119 2.011927 -0.567627
v 0.296000 0.160563 -0.442995
v 0.341340 2.011927 -0.510851
v 0.376736 0.160563 -0.376736
v 0.434443 2.011927 -0.434443
v 0.442995 0.160563 -0.296000
v 0.510851 2.011927 -0.341340
v 0.492229 0.160563 -0.203888
v 0.567627 2.011927 -0.235119
v 0.522548 0.160563 -0.103941
v 0.602590 2.011927 -0.119863
v 0.532785 0.160563 0.000000
v 0.614395 2.011927 0.000000
v 0.522548 0.160563 0.103941
v 0.602590 2.011927 0.119863
v 0.492229 0.160563 0.203888
v 0.567627 2.011927 0.235119
v 0.442995 0.160563 0.296000
v 0.510851 2.011927 0.341340
v 0.376736 0.160563 0.376736
v 0.434443 2.011927 0.434443
v 0.296000 0.160563 0.442995
v 0.341340 2.011927 0.510851
v 0.203888 0.160563 0.492229
v 0.235119 2.011927 0.567627
v 0.103941 0.160563 0.522548
v 0.119863 2.011927 0.602590
v -0.000000 0.160563 0.532785
v -0.000000 2.011927 0.614395
v -0.103941 0.160563 0.522548
v -0.119863 2.011927 0.602590
v -0.203888 0.160563 0.492229
v -0.235119 2.011927 0.567627
v -0.296000 0.160563 0.442995
v -0.341340 2.011927 0.510851
v -0.376736 0.160563 0.376736
v -0.434443 2.011927 0.434443
v -0.442995 0.160563 0.296000
v -0.510851 2.011927 0.341340
v -0.492229 0.160563 0.203888
v -0.567627 2.011927 0.235119
v -0.522548 0.160563 0.103941
v -0.602590 2.011927 0.119863
v -0.532785 0.160563 -0.000000
v -0.614395 2.011927 -0.000000
v -0.522548 0.160563 -0.103941
v -0.602590 2.011927 -0.119863
v -0.492229 0.160563 -0.203888
v -0.567627 2.011927 -0.235119
v -0.442995 0.160563 -0.296000
v -0.510851 2.011927 -0.341340
v -0.376736 0.160563 -0.376736
v -0.434443 2.011927 -0.434443
v -0.296000 0.160563 -0.442995
v -0.341340 2.011927 -0.510851
v -0.203888 0.160563 -0.492229
v -0.235119 2.011927 -0.567627
v -0.103941 0.160563 -0.522548
v -0.119863 2.011927 -0.602590
vt 1.000000 0.500000
vt 1.000000 1.000000
vt 0.968750 1.000000
vt 0.968750 0.500000
vt 0.937500 1.000000
vt 0.937500 0.500000
vt 0.906250 1.000000
vt 0.906250 0.500000
vt 0.875000 1.000000
vt 0.875000 0.500000
vt 0.843750 1.000000
vt 0.843750 0.500000
vt 0.812500 1.000000
vt 0.812500 0.500000
vt 0.781250 1.000000
vt 0.781250 0.500000
vt 0.750000 1.000000
vt 0.750000 0.500000
vt 0.718750 1.000000
vt 0.718750 0.500000
vt 0.687500 1.000000
vt 0.687500 0.500000
vt 0.656250 1.000000
vt 0.656250 0.500000
vt 0.625000 1.000000
vt 0.625000 0.500000
vt 0.593750 1.000000
vt 0.593750 0.500000
vt 0.562500 1.000000
vt 0.562500 0.500000
vt 0.531250 1.000000
vt 0.531250 0.500000
vt 0.500000 1.000000
vt 0.500000 0.500000
vt 0.468750 1.000000
vt 0.468750 0.500000
vt 0.437500 1.000000
vt 0.437500 0.500000
vt 0.406250 1.000000
vt 0.406250 0.500000
vt 0.375000 1.000000
vt 0.375000 0.500000
vt 0.343750 1.000000
vt 0.343750 0.500000
vt 0.312500 1.000000
vt 0.312500 0.500000
vt 0.281250 1.000000
vt 0.281250 0.500000
vt 0.250000 1.000000
vt 0.250000 0.500000
vt 0.218750 1.000000
vt 0.218750 0.500000
vt 0.187500 1.000000
vt 0.187500 0.500000
vt 0.156250 1.000000
vt 0.156250 0.500000
vt 0.125000 1.000000
vt 0.125000 0.500000
vt 0.093750 1.000000
vt 0.093750 0.500000
vt 0.062500 1.000000
vt 0.062500 0.500000
vt 0.296822 0.485388
vt 0.250000 0.490000
vt 0.203178 0.485388
vt 0.158156 0.471731
vt 0.116663 0.449553
vt 0.080294 0.419706
vt 0.050447 0.383337
vt 0.028269 0.341844
vt 0.014612 0.296822
vt 0.010000 0.250000
vt 0.014612 0.203178
vt 0.028269 0.158156
vt 0.050447 0.116663
vt 0.080294 0.080294
vt 0.116663 0.050447
vt 0.158156 0.028269
vt 0.203178 0.014612
vt 0.250000 0.010000
vt 0.296822 0.014612
vt 0.341844 0.028269
vt 0.383337 0.050447
vt 0.419706 0.080294
vt 0.449553 0.116663
vt 0.471731 0.158156
vt 0.485388 0.203178
vt 0.490000 0.250000
vt 0.485388 0.296822
vt 0.471731 0.341844
vt 0.449553 0.383337
vt 0.419706 0.419706
vt 0.383337 0.449553
vt 0.341844 0.471731
vt 0.031250 1.000000
vt 0.031250 0.500000
vt 0.000000 1.000000
vt 0.000000 0.500000
vt 0.750000 0.490000
vt 0.796822 0.485388
vt 0.841844 0.471731
vt 0.883337 0.449553
vt 0.919706 0.419706
vt 0.949553 0.383337
vt 0.971731 0.341844
vt 0.985388 0.296822
vt 0.990000 0.250000
vt 0.985388 0.203178
vt 0.971731 0.158156
vt 0.949553 0.116663
vt 0.919706 0.080294
vt 0.883337 0.050447
vt 0.841844 0.028269
vt 0.796822 0.014612
vt 0.750000 0.010000
vt 0.703178 0.014612
vt 0.658156 0.028269
vt 0.616663 0.050447
vt 0.580294 0.080294
vt 0.550447 0.116663
vt 0.528269 0.158156
vt 0.514612 0.203178
vt 0.510000 0.250000
vt 0.514612 0.296822
vt 0.528269 0.341844
vt 0.550447 0.383337
vt 0.580294 0.419706
vt 0.616663 0.449553
vt 0.658156 0.471731
vt 0.703178 0.485388
vn 0.0979 -0.0438 -0.9942
vn 0.2900 -0.0438 -0.9560
vn 0.4709 -0.0438 -0.8811
vn 0.6338 -0.0438 -0.7723
vn 0.7723 -0.0438 -0.6338
vn 0.8811 -0.0438 -0.4709
vn 0.9560 -0.0438 -0.2900
vn 0.9942 -0.0438 -0.0979
vn 0.9942 -0.0438 0.0979
vn 0.9560 -0.0438 0.2900
vn 0.8811 -0.0438 0.4709
vn 0.7723 -0.0438 0.6338
vn 0.6338 -0.0438 0.7723
vn 0.4709 -0.0438 0.8811
vn 0.2900 -0.0438 0.9560
vn 0.0979 -0.0438 0.9942
vn -0.0979 -0.0438 0.9942
vn -0.2900 -0.0438 0.9560
vn -0.4709 -0.0438 0.8811
vn -0.6338 -0.0438 0.7723
vn -0.7723 -0.0438 0.6338
vn -0.8811 -0.0438 0.4709
vn -0.9560 -0.0438 0.2900
vn -0.9942 -0.0438 0.0979
vn -0.9942 -0.0438 -0.0979
vn -0.9560 -0.0438 -0.2900
vn -0.8811 -0.0438 -0.4709
vn -0.7723 -0.0438 -0.6338
vn -0.6338 -0.0438 -0.7723
vn -0.4709 -0.0438 -0.8811
vn 0.0000 1.0000 0.0000
vn -0.2900 -0.0438 -0.9560
vn -0.0979 -0.0438 -0.9942
vn 0.0000 -1.0000 -0.0000
usemtl orange
s off
f 129/195/67 130/196/67 132/197/67 131/198/67
f 131/198/68 132/197/68 134/199/68 133/200/68
f 133/200/69 134/199/69 136/201/69 135/202/69
f 135/202/70 136/201/70 138/203/70 137/204/70
f 137/204/71 138/203/71 140/205/71 139/206/71
f 139/206/72 140/205/72 142/207/72 141/208/72
f 141/208/73 142/207/73 144/209/73 143/210/73
f 143/210/74 144/209/74 146/211/74 145/212/74
f 145/212/75 146/211/75 148/213/75 147/214/75
f 147/214/76 148/213/76 150/215/76 149/216/76
f 149/216/77 150/215/77 152/217/77 151/218/77
f 151/218/78 152/217/78 154/219/78 153/220/78
f 153/220/79 154/219/79 156/221/79 155/222/79
f 155/222/80 156/221/80 158/223/80 157/224/80
f 157/224/81 158/223/81 160/225/81 159/226/81
f 159/226/82 160/225/82 162/227/82 161/228/82
f 161/228/83 162/227/83 164/229/83 163/230/83
f 163/230/84 164/229/84 166/231/84 165/232/84
f 165/232/85 166/231/85 168/233/85 167/234/85
f 167/234/86 168/233/86 170/235/86 169/236/86
f 169/236/87 170/235/87 172/237/87 171/238/87
f 171/238/88 172/237/88 174/239/88 173/240/88
f 173/240/89 174/239/89 176/241/89 175/242/89
f 175/242/90 176/241/90 178/243/90 177/244/90
f 177/244/91 178/243/91 180/245/91 179/246/91
f 179/246/92 180/245/92 182/247/92 181/248/92
f 181/248/93 182/247/93 184/249/93 183/250/93
f 183/250/94 184/249/94 186/251/94 185/252/94
f 185/252/95 186/251/95 188/253/95 187/254/95
f 187/254/96 188/253/96 190/255/96 189/256/96
f 132/257/97 130/258/97 192/259/97 190/260/97 188/261/97 186/262/97 184/263/97 182/264/97 180/265/97 178/266/97 176/267/97 174/268/97 172/269/97 170/270/97 168/271/97 166/272/97 164/273/97 162/274/97 160/275/97 158/276/97 156/277/97 154/278/97 152/279/97 150/280/97 148/281/97 146/282/97 144/283/97 142/284/97 140/285/97 138/286/97 136/287/97 134/288/97
f 189/256/98 190/255/98 192/289/98 191/290/98
f 191/290/99 192/289/99 130/291/99 129/292/99
f 129/293/100 131/294/100 133/295/100 135/296/100 137/297/100 139/298/100 141/299/100 143/300/100 145/301/100 147/302/100 149/303/100 151/304/100 153/305/100 155/306/100 157/307/100 159/308/100 161/309/100 163/310/100 165/311/100 167/312/100 169/313/100 171/314/100 173/315/100 175/316/100 177/317/100 179/318/100 181/319/100 183/320/100 185/321/100 187/322/100 189/323/100 191/324/100
